<?xml version="1.0" standalone="no"?>
<!DOCTYPE svg PUBLIC "-//W3C//DTD SVG 20010904//EN"
 "http://www.w3.org/TR/2001/REC-SVG-20010904/DTD/svg10.dtd">
<svg version="1.0" xmlns="http://www.w3.org/2000/svg"
 width="512.000000pt" height="512.000000pt" viewBox="0 0 512.000000 512.000000"
 preserveAspectRatio="xMidYMid meet">

<g transform="translate(0.000000,512.000000) scale(0.100000,-0.100000)"
fill="#000000" stroke="none">
<path d="M4060 4899 c-238 -39 -430 -278 -430 -534 0 -133 42 -242 132 -340
35 -39 48 -60 40 -63 -8 -2 -48 -30 -90 -62 -136 -103 -223 -230 -273 -401
-19 -66 -22 -104 -26 -350 -5 -245 -3 -281 12 -312 33 -69 9 -67 735 -67 727
0 702 -2 735 67 15 32 17 67 12 312 -4 244 -7 284 -26 349 -53 181 -165 336
-309 429 -31 21 -59 39 -61 40 -2 2 19 27 46 56 189 199 176 521 -28 729 -123
126 -285 177 -469 147z m235 -238 c115 -51 178 -152 179 -286 1 -72 -3 -88
-32 -148 -54 -109 -152 -167 -282 -167 -130 0 -228 58 -282 167 -29 60 -33 77
-33 148 0 120 48 208 143 267 85 53 213 61 307 19z m-16 -836 c173 -41 320
-172 383 -340 20 -54 23 -82 26 -277 l3 -218 -530 0 -531 0 0 198 c0 132 5
213 14 247 75 284 355 456 635 390z"/>
<path d="M820 4885 c-239 -66 -390 -266 -390 -515 0 -133 44 -245 134 -346 33
-38 46 -59 37 -62 -7 -2 -47 -30 -89 -62 -136 -103 -223 -230 -273 -401 -19
-66 -22 -104 -26 -350 -5 -245 -3 -281 12 -312 33 -69 9 -67 735 -67 727 0
702 -2 735 67 15 32 17 67 12 312 -4 244 -7 284 -26 349 -53 181 -165 336
-309 429 -31 21 -59 38 -61 40 -2 1 19 27 46 58 89 100 133 213 133 345 0 232
-133 425 -345 501 -79 28 -246 35 -325 14z m275 -224 c115 -51 178 -152 179
-286 1 -72 -3 -88 -32 -148 -54 -109 -152 -167 -282 -167 -130 0 -228 58 -282
167 -29 60 -33 77 -33 148 0 120 48 208 143 267 85 53 213 61 307 19z m14
-848 c147 -40 262 -134 324 -263 49 -105 57 -155 57 -370 l0 -190 -530 0 -530
0 0 193 c0 136 5 211 15 256 50 212 231 368 450 390 78 8 147 3 214 -16z"/>
<path d="M2420 4885 c-239 -66 -390 -266 -390 -515 0 -133 44 -245 134 -346
33 -38 46 -59 37 -62 -7 -2 -47 -30 -89 -62 -136 -103 -223 -230 -273 -401
-19 -66 -22 -104 -26 -350 -5 -245 -3 -281 12 -312 33 -69 9 -67 735 -67 727
0 702 -2 735 67 15 32 17 67 12 312 -4 244 -7 284 -26 349 -53 181 -165 336
-309 429 -31 21 -59 38 -61 40 -2 1 19 27 46 58 89 100 133 213 133 345 0 232
-133 425 -345 501 -79 28 -246 35 -325 14z m275 -224 c115 -51 178 -152 179
-286 1 -72 -3 -88 -32 -148 -54 -109 -152 -167 -282 -167 -130 0 -228 58 -282
167 -29 60 -33 77 -33 148 0 120 48 208 143 267 85 53 213 61 307 19z m14
-848 c147 -40 262 -134 324 -263 49 -105 57 -155 57 -370 l0 -190 -530 0 -530
0 0 193 c0 136 5 211 15 256 50 212 231 368 450 390 78 8 147 3 214 -16z"/>
<path d="M2182 2335 c-72 -20 -106 -39 -152 -85 -172 -172 -127 -470 84 -568
22 -11 191 -64 373 -118 183 -54 332 -102 330 -107 -1 -4 -64 -44 -140 -90
l-138 -83 -962 138 c-529 75 -992 137 -1029 138 -91 0 -163 -28 -226 -88 -72
-68 -95 -119 -100 -222 -3 -69 0 -95 17 -141 24 -62 83 -136 134 -167 28 -17
708 -270 1681 -626 l290 -106 371 0 c308 0 381 3 426 16 228 66 1699 529 1717
541 49 31 52 54 52 464 0 433 0 433 -73 468 -23 11 -368 161 -767 333 l-725
313 -555 2 c-456 2 -564 -1 -608 -12z m1808 -504 l695 -298 3 -301 2 -300 -47
-16 c-27 -8 -387 -121 -801 -251 l-753 -235 -366 0 -366 0 -936 345 c-655 242
-943 352 -960 369 -31 31 -39 101 -17 144 18 36 62 62 102 62 14 0 466 -63
1003 -140 537 -77 992 -140 1011 -140 27 0 99 38 327 175 267 160 292 178 303
210 14 44 6 86 -24 114 -15 14 -169 65 -492 162 -507 152 -514 155 -534 229
-17 61 19 137 75 160 11 5 259 9 550 9 l530 0 695 -298z"/>
</g>
</svg>
