<?xml version="1.0" standalone="no"?>
<!DOCTYPE svg PUBLIC "-//W3C//DTD SVG 20010904//EN"
 "http://www.w3.org/TR/2001/REC-SVG-20010904/DTD/svg10.dtd">
<svg version="1.0" xmlns="http://www.w3.org/2000/svg"
 width="512.000000pt" height="512.000000pt" viewBox="0 0 512.000000 512.000000"
 preserveAspectRatio="xMidYMid meet">

<g transform="translate(0.000000,512.000000) scale(0.100000,-0.100000)"
fill="#000000" stroke="none">
<path d="M2104 4903 c-41 -8 -66 -51 -134 -233 -38 -101 -73 -186 -77 -191 -4
-4 -43 -21 -86 -38 -43 -17 -105 -45 -138 -62 l-61 -30 -190 85 c-104 47 -201
86 -214 86 -14 0 -37 -6 -52 -14 -15 -8 -167 -156 -338 -328 -243 -243 -313
-320 -319 -345 -5 -28 9 -68 94 -257 56 -123 101 -228 101 -232 -1 -16 -67
-185 -76 -193 -5 -4 -85 -36 -179 -71 -214 -79 -224 -84 -241 -125 -21 -51
-21 -890 0 -940 18 -42 22 -44 285 -143 l205 -77 27 -61 27 -61 -84 -183 c-55
-120 -84 -196 -84 -219 0 -33 21 -57 333 -368 312 -313 334 -333 368 -333 23
0 100 29 221 84 125 56 190 81 199 75 8 -5 56 -25 107 -46 51 -20 97 -44 102
-54 5 -9 37 -90 70 -180 34 -90 68 -175 76 -187 33 -50 51 -52 514 -52 448 0
475 2 508 43 8 9 45 98 82 198 38 100 73 185 77 189 10 10 204 91 218 92 6 1
91 -36 189 -80 118 -54 191 -82 215 -82 34 0 55 19 368 333 314 313 333 334
333 368 0 24 -28 97 -82 215 -44 98 -81 184 -80 189 1 14 82 208 92 218 4 4
89 39 189 77 100 37 189 74 198 82 41 33 43 60 43 508 0 459 -2 479 -49 512
-11 8 -104 46 -206 84 -102 38 -185 73 -185 79 0 5 -20 55 -44 111 l-43 101
83 184 c52 115 84 197 84 219 0 32 -22 57 -333 367 -313 314 -334 333 -368
333 -24 0 -99 -28 -219 -83 l-183 -83 -88 37 c-48 21 -99 41 -112 44 -21 6
-34 33 -98 202 -59 157 -80 200 -102 217 -28 21 -39 21 -475 22 -246 1 -457 0
-468 -3z m876 -389 c36 -97 74 -185 85 -196 11 -11 65 -36 120 -57 55 -21 128
-52 162 -69 34 -18 76 -32 92 -32 16 0 107 36 203 79 l173 79 251 -250 251
-250 -78 -172 c-44 -95 -79 -185 -79 -202 0 -17 19 -71 42 -120 22 -49 53
-122 68 -163 15 -41 36 -84 47 -95 11 -12 100 -50 197 -86 l176 -65 0 -355 0
-355 -171 -64 c-95 -36 -183 -74 -196 -85 -13 -12 -38 -61 -57 -111 -19 -49
-50 -124 -70 -165 -20 -41 -36 -87 -36 -102 0 -22 106 -274 150 -359 7 -12
-49 -73 -243 -267 l-252 -251 -173 80 c-95 43 -185 79 -200 79 -15 0 -61 -16
-102 -36 -41 -20 -115 -51 -164 -70 -50 -18 -100 -44 -112 -56 -11 -13 -50
-101 -85 -196 l-64 -172 -355 0 -355 0 -65 176 c-36 97 -74 186 -86 197 -11
11 -54 32 -95 47 -41 15 -114 46 -163 68 -49 23 -101 42 -117 42 -15 0 -105
-36 -201 -79 l-173 -79 -252 251 c-194 193 -250 254 -243 266 4 9 40 87 79
173 72 160 83 206 57 243 -7 11 -23 46 -35 78 -32 87 -59 135 -84 152 -12 8
-90 40 -172 71 -83 31 -174 65 -202 76 l-53 19 0 353 0 353 183 69 c100 38
192 79 204 91 12 12 25 34 28 50 3 15 26 79 50 140 64 160 63 162 -45 400
l-90 198 247 247 c136 137 252 248 257 248 4 0 88 -36 185 -80 98 -44 186 -80
195 -80 10 0 68 25 130 55 61 30 154 70 206 90 52 19 102 43 111 54 8 10 44
98 80 195 l64 176 355 0 355 0 65 -176z"/>
<path d="M2407 3719 c-381 -56 -735 -305 -900 -634 -40 -81 -86 -221 -102
-313 -19 -108 -19 -305 0 -413 74 -422 385 -781 790 -912 176 -57 398 -73 577
-42 683 119 1120 861 901 1530 -54 165 -134 296 -266 432 -151 156 -291 247
-471 307 -152 51 -367 69 -529 45z m402 -235 c103 -26 254 -96 311 -144 l35
-29 -297 -298 -298 -298 -295 295 c-162 162 -295 298 -295 303 0 11 133 95
196 123 191 84 430 102 643 48z m-699 -629 l295 -295 -295 -295 c-162 -162
-298 -295 -303 -295 -15 0 -107 153 -135 228 -50 130 -66 221 -65 372 1 160
28 283 92 414 39 79 96 166 109 166 4 0 140 -133 302 -295z m1260 220 c99
-153 143 -315 143 -525 -1 -112 -5 -152 -27 -235 -28 -107 -98 -258 -146 -315
l-29 -35 -298 297 -298 298 295 295 c162 162 298 295 303 295 4 0 30 -34 57
-75z m-513 -967 c161 -161 293 -296 293 -301 0 -15 -153 -107 -228 -136 -120
-46 -221 -64 -362 -64 -140 -1 -236 16 -362 65 -74 28 -228 119 -228 135 0 9
582 593 590 593 3 0 137 -132 297 -292z"/>
</g>
</svg>
