<?xml version="1.0" standalone="no"?>
<!DOCTYPE svg PUBLIC "-//W3C//DTD SVG 20010904//EN"
 "http://www.w3.org/TR/2001/REC-SVG-20010904/DTD/svg10.dtd">
<svg version="1.0" xmlns="http://www.w3.org/2000/svg"
 width="512.000000pt" height="512.000000pt" viewBox="0 0 512.000000 512.000000"
 preserveAspectRatio="xMidYMid meet">

<g transform="translate(0.000000,512.000000) scale(0.100000,-0.100000)"
fill="#000000" stroke="none">
<path d="M1204 4896 c-93 -23 -175 -92 -216 -181 -23 -49 -23 -57 -26 -453
l-3 -402 -282 -189 c-155 -104 -298 -206 -319 -227 -54 -58 -96 -130 -121
-209 l-22 -70 0 -1350 0 -1350 26 -55 c37 -80 81 -125 157 -162 l67 -33 2069
-3 c1804 -2 2077 0 2128 13 104 26 168 81 217 185 l26 55 0 1350 0 1350 -24
74 c-27 82 -79 166 -138 223 -21 20 -159 118 -308 218 l-270 181 -5 402 c-5
397 -5 403 -29 455 -29 64 -112 143 -178 168 -46 18 -108 19 -1373 21 -1028 1
-1336 -1 -1376 -11z m2699 -227 c15 -11 31 -37 37 -57 8 -26 10 -434 8 -1322
l-3 -1285 -595 -482 c-343 -279 -618 -495 -650 -510 -73 -37 -179 -38 -257 -4
-38 17 -219 166 -660 545 l-608 521 -3 1250 c-2 863 0 1261 8 1287 6 20 22 46
37 57 26 21 29 21 1343 21 1314 0 1317 0 1343 -21z m-2945 -2073 l-3 -333
-262 225 -263 225 0 213 c0 243 10 288 78 363 20 22 129 102 242 176 l205 135
3 -335 c1 -184 1 -485 0 -669z m3405 875 c195 -131 276 -202 303 -266 24 -58
35 -218 28 -415 l-7 -185 -56 -45 c-31 -25 -149 -121 -263 -213 l-208 -168 0
711 c0 390 2 710 5 710 3 0 92 -58 198 -129z m-3329 -1556 c245 -209 444 -383
443 -386 -2 -5 -951 -869 -1025 -933 l-22 -19 0 927 0 927 80 -68 c43 -37 279
-239 524 -448z m3654 -895 l-3 -441 -508 462 c-417 379 -506 464 -495 475 7 7
236 193 508 413 l495 401 3 -434 c1 -239 1 -633 0 -876z m-2720 93 c163 -140
320 -265 352 -282 109 -58 256 -76 375 -46 122 32 121 31 628 442 l175 142
516 -470 517 -469 -1971 0 -1971 0 528 480 c438 398 530 477 542 467 8 -7 147
-125 309 -264z"/>
<path d="M2363 3600 c-138 -36 -250 -105 -353 -218 -75 -82 -123 -159 -157
-254 -38 -107 -44 -300 -14 -419 89 -351 368 -575 711 -571 217 2 413 74 457
167 34 70 -16 145 -96 145 -17 0 -59 -16 -93 -35 -155 -84 -337 -88 -506 -8
-76 35 -190 149 -225 225 -147 312 13 678 334 763 71 19 200 19 274 -1 222
-57 395 -275 395 -495 0 -47 -5 -63 -25 -87 -30 -36 -75 -47 -120 -28 -52 22
-59 45 -65 208 -5 138 -6 148 -29 172 -32 34 -86 44 -124 22 -27 -15 -33 -15
-85 0 -108 32 -244 -5 -313 -83 -140 -160 -97 -419 84 -508 102 -49 231 -41
320 20 l37 24 46 -28 c162 -103 384 -33 467 147 18 39 22 63 20 142 -7 410
-338 721 -763 719 -69 0 -129 -7 -177 -19z m235 -621 c40 -14 62 -49 62 -99 0
-78 -62 -124 -134 -100 -44 14 -66 48 -66 102 0 48 21 82 60 97 33 13 41 13
78 0z"/>
</g>
</svg>
