<?xml version="1.0" standalone="no"?>
<!DOCTYPE svg PUBLIC "-//W3C//DTD SVG 20010904//EN"
 "http://www.w3.org/TR/2001/REC-SVG-20010904/DTD/svg10.dtd">
<svg version="1.0" xmlns="http://www.w3.org/2000/svg"
 width="512.000000pt" height="512.000000pt" viewBox="0 0 512.000000 512.000000"
 preserveAspectRatio="xMidYMid meet">

<g transform="translate(0.000000,512.000000) scale(0.100000,-0.100000)"
fill="#000000" stroke="none">
<path d="M2490 4899 c-77 -6 -152 -30 -235 -72 -51 -26 -196 -167 -1017 -985
-673 -672 -964 -969 -983 -1003 -85 -157 -23 -366 136 -454 51 -28 61 -30 204
-35 l150 -5 5 -860 c4 -767 7 -864 21 -901 74 -181 190 -295 354 -347 l70 -22
1365 0 1365 0 70 22 c164 52 280 166 354 347 14 37 17 134 21 901 l5 860 145
5 c120 4 153 9 190 26 139 66 219 218 190 362 -7 31 -23 78 -37 103 -17 31
-328 349 -981 1001 -881 878 -963 957 -1027 990 -114 59 -228 80 -365 67z
m240 -244 c62 -27 114 -78 998 -959 513 -512 940 -943 948 -958 28 -54 9 -133
-39 -160 -15 -9 -86 -15 -219 -18 l-198 -5 -27 -28 -28 -27 -5 -918 -5 -917
-28 -57 c-30 -62 -83 -115 -149 -150 -42 -23 -49 -23 -410 -26 l-367 -3 -3
628 -3 628 -34 63 c-38 70 -69 100 -145 140 l-51 27 -405 0 -405 0 -50 -25
c-64 -31 -124 -91 -155 -155 l-25 -50 -3 -628 -3 -628 -367 3 c-361 3 -368 3
-410 26 -66 35 -119 88 -149 150 l-28 57 -5 917 -5 918 -28 27 -27 28 -198 5
c-133 3 -204 9 -219 18 -48 27 -67 106 -39 160 8 15 432 444 943 954 662 661
941 932 973 949 81 40 121 49 215 46 73 -3 102 -9 155 -32z m195 -2961 c66
-31 65 -17 65 -673 l0 -591 -430 0 -430 0 0 591 c0 653 -1 641 63 673 48 23
683 24 732 0z"/>
</g>
</svg>
