<?xml version="1.0" standalone="no"?>
<!DOCTYPE svg PUBLIC "-//W3C//DTD SVG 20010904//EN"
 "http://www.w3.org/TR/2001/REC-SVG-20010904/DTD/svg10.dtd">
<svg version="1.0" xmlns="http://www.w3.org/2000/svg"
 width="512.000000pt" height="512.000000pt" viewBox="0 0 512.000000 512.000000"
 preserveAspectRatio="xMidYMid meet">

<g transform="translate(0.000000,512.000000) scale(0.100000,-0.100000)"
fill="#000000" stroke="none">
<path d="M997 4579 c-99 -23 -192 -103 -226 -195 -15 -39 -21 -78 -21 -138 l0
-84 -147 -4 c-128 -3 -155 -6 -198 -26 -96 -44 -165 -132 -185 -237 -8 -43
-10 -485 -8 -1585 l3 -1525 26 -55 c37 -80 81 -125 157 -162 l67 -33 2069 -3
c1804 -2 2077 0 2128 13 104 26 168 81 217 185 l26 55 0 1555 c0 1767 8 1612
-86 1714 -76 84 -122 100 -301 104 l-146 4 -4 96 c-2 78 -8 107 -27 146 -76
154 -261 224 -411 155 -79 -36 -125 -81 -161 -155 -26 -52 -32 -79 -37 -154
l-5 -90 -422 0 -423 0 -4 93 c-6 116 -31 178 -99 242 -134 126 -323 121 -451
-12 -57 -59 -81 -122 -86 -230 l-4 -93 -423 0 -422 0 -5 89 c-10 174 -95 287
-245 326 -63 17 -90 17 -146 4z m150 -244 c22 -25 23 -32 23 -226 0 -223 -4
-239 -66 -259 -46 -16 -88 -4 -119 32 -25 29 -25 31 -25 221 1 205 5 227 51
254 38 21 109 10 136 -22z m1485 6 l33 -29 3 -189 c2 -165 1 -192 -15 -223
-40 -77 -156 -74 -189 6 -13 30 -15 72 -12 221 l3 185 33 29 c45 40 99 40 144
0z m1477 15 c46 -24 51 -51 51 -256 0 -187 0 -189 -25 -218 -31 -36 -73 -48
-119 -32 -62 20 -66 36 -66 257 0 166 3 202 16 221 29 42 92 54 143 28z
m-3353 -472 c7 -34 19 -76 28 -93 26 -48 84 -101 145 -130 47 -22 70 -26 141
-26 72 1 94 5 142 28 31 15 71 44 89 64 35 41 79 127 79 158 0 11 3 30 6 43
l6 22 423 0 422 0 7 -47 c14 -106 85 -201 185 -247 65 -30 197 -30 263 1 100
46 167 135 183 246 l7 47 423 0 423 0 7 -42 c17 -106 87 -203 181 -249 41 -20
64 -24 139 -24 75 0 98 4 135 24 94 49 154 128 175 231 l12 55 99 3 c114 4
165 -8 193 -45 20 -24 21 -39 21 -259 l0 -234 -2130 0 -2130 0 0 233 c0 199 2
236 16 256 29 40 69 51 188 48 l109 -2 13 -61z m3934 -1880 l0 -1196 -29 -29
-29 -29 -2072 0 -2072 0 -29 29 -29 29 0 1196 0 1196 2130 0 2130 0 0 -1196z"/>
<path d="M2462 2799 c-67 -33 -89 -73 -152 -267 l-57 -177 -205 -5 -205 -5
-48 -30 c-71 -44 -109 -118 -102 -198 8 -88 35 -120 211 -248 147 -107 154
-113 145 -138 -107 -329 -111 -345 -107 -392 12 -118 139 -208 262 -185 22 4
95 50 196 122 l161 116 107 -78 c214 -156 217 -157 279 -162 113 -8 217 76
229 184 6 43 -1 74 -49 220 -31 93 -57 177 -59 186 -2 12 43 50 152 130 85 62
164 128 177 146 63 95 24 243 -80 303 -40 23 -53 24 -246 29 l-204 5 -57 177
c-34 106 -68 191 -83 212 -56 73 -177 98 -265 55z m158 -371 c60 -189 87 -235
152 -270 40 -21 59 -23 240 -26 l198 -4 -133 -95 c-162 -117 -185 -137 -208
-188 -29 -64 -24 -111 36 -296 31 -94 54 -173 52 -175 -2 -2 -64 41 -138 95
-170 124 -188 133 -259 133 -71 0 -86 -8 -257 -132 -75 -55 -138 -98 -140 -96
-2 2 21 81 52 175 58 180 65 228 40 289 -23 53 -43 72 -200 185 l-140 102 195
5 c177 5 199 8 238 28 66 35 92 82 152 271 30 94 57 171 60 171 3 0 30 -78 60
-172z"/>
</g>
</svg>
