<?xml version="1.0" standalone="no"?>
<!DOCTYPE svg PUBLIC "-//W3C//DTD SVG 20010904//EN"
 "http://www.w3.org/TR/2001/REC-SVG-20010904/DTD/svg10.dtd">
<svg version="1.0" xmlns="http://www.w3.org/2000/svg"
 width="512.000000pt" height="512.000000pt" viewBox="0 0 512.000000 512.000000"
 preserveAspectRatio="xMidYMid meet">

<g transform="translate(0.000000,512.000000) scale(0.100000,-0.100000)"
fill="#000000" stroke="none">
<path d="M2484 4900 c-213 -32 -384 -187 -439 -397 -8 -31 -15 -74 -15 -95 0
-21 -2 -38 -4 -38 -2 0 -40 -7 -83 -15 -440 -83 -775 -418 -858 -858 -13 -67
-15 -214 -15 -943 0 -716 -2 -864 -13 -864 -38 0 -140 -65 -195 -125 -84 -90
-106 -148 -107 -286 0 -102 1 -107 38 -181 63 -128 182 -214 327 -237 38 -7
260 -11 538 -11 l472 0 0 -107 c0 -139 12 -211 49 -289 76 -162 266 -263 442
-235 140 23 263 113 320 235 37 78 49 150 49 289 l0 107 473 0 c277 0 499 4
537 11 145 23 264 109 327 235 31 64 37 88 41 158 7 139 -33 240 -133 335 -50
47 -141 101 -172 101 -10 0 -13 179 -13 864 0 729 -2 876 -15 943 -83 439
-418 775 -854 857 -46 9 -85 16 -87 16 -2 0 -4 17 -4 38 0 97 -58 234 -137
322 -116 129 -300 196 -469 170z m214 -239 c65 -33 118 -87 149 -148 23 -48
28 -73 33 -174 5 -111 7 -121 32 -145 23 -23 38 -28 125 -36 235 -21 409 -103
565 -266 121 -127 190 -261 222 -432 14 -71 16 -206 16 -982 0 -997 -3 -945
65 -974 19 -8 48 -14 65 -14 42 0 100 -32 138 -74 91 -104 57 -257 -70 -320
l-52 -26 -1427 0 -1427 0 -53 28 c-126 66 -157 215 -66 318 37 43 95 74 137
74 17 0 46 6 65 14 68 29 65 -23 65 973 0 575 4 921 11 963 26 168 106 325
227 452 156 163 330 245 566 266 86 8 101 13 124 36 24 24 27 34 32 143 5 87
12 130 27 164 36 81 104 143 192 176 55 20 185 12 239 -16z m70 -3954 c-3
-134 -5 -146 -28 -180 -14 -21 -43 -50 -64 -65 -35 -24 -49 -27 -116 -27 -65
0 -82 4 -113 25 -21 14 -50 43 -65 64 -26 38 -27 45 -30 183 l-3 143 211 0
211 0 -3 -143z"/>
</g>
</svg>
