<?xml version="1.0" standalone="no"?>
<!DOCTYPE svg PUBLIC "-//W3C//DTD SVG 20010904//EN"
 "http://www.w3.org/TR/2001/REC-SVG-20010904/DTD/svg10.dtd">
<svg version="1.0" xmlns="http://www.w3.org/2000/svg"
 width="512.000000pt" height="512.000000pt" viewBox="0 0 512.000000 512.000000"
 preserveAspectRatio="xMidYMid meet">

<g transform="translate(0.000000,512.000000) scale(0.100000,-0.100000)"
fill="#000000" stroke="none">
<path d="M2370 4794 c-829 -76 -1549 -566 -1910 -1299 -81 -166 -130 -294
-169 -448 -143 -555 -85 -1118 165 -1627 231 -470 600 -839 1069 -1071 593
-292 1295 -319 1908 -73 1020 409 1623 1483 1441 2564 -39 232 -104 431 -214
655 -226 459 -595 829 -1057 1058 -231 114 -447 183 -698 222 -97 15 -442 27
-535 19z m450 -225 c319 -37 656 -162 925 -342 172 -115 392 -323 514 -485
232 -307 377 -674 422 -1066 15 -128 6 -451 -16 -571 -99 -550 -379 -1015
-812 -1348 l-61 -47 -5 308 c-3 278 -6 314 -25 379 -45 149 -103 250 -207 361
-107 115 -248 199 -410 244 -78 22 -92 22 -585 22 -493 0 -507 0 -585 -22
-306 -86 -526 -301 -617 -605 -19 -65 -22 -101 -25 -379 l-5 -308 -81 62
c-114 87 -298 274 -386 392 -203 270 -337 578 -402 921 -30 156 -37 465 -15
634 50 375 192 725 417 1023 142 189 404 424 600 539 424 248 876 344 1359
288z m268 -2774 c216 -51 390 -216 463 -440 22 -66 23 -88 27 -421 l4 -352
-29 -20 c-134 -94 -413 -186 -693 -228 -140 -21 -461 -24 -600 -5 -272 36
-500 112 -671 222 l-51 32 5 351 c4 387 6 399 71 531 77 156 244 288 413 329
87 21 972 22 1061 1z"/>
<path d="M2375 4033 c-412 -87 -705 -451 -705 -873 0 -425 294 -788 710 -875
91 -19 269 -19 359 0 418 88 711 449 711 875 0 426 -295 788 -712 874 -96 20
-269 20 -363 -1z m323 -209 c207 -42 387 -184 478 -379 208 -447 -123 -965
-616 -965 -150 0 -292 49 -417 144 -201 152 -302 432 -247 679 82 366 435 596
802 521z"/>
</g>
</svg>
