<?xml version="1.0" standalone="no"?>
<!DOCTYPE svg PUBLIC "-//W3C//DTD SVG 20010904//EN"
 "http://www.w3.org/TR/2001/REC-SVG-20010904/DTD/svg10.dtd">
<svg version="1.0" xmlns="http://www.w3.org/2000/svg"
 width="512.000000pt" height="512.000000pt" viewBox="0 0 512.000000 512.000000"
 preserveAspectRatio="xMidYMid meet">

<g transform="translate(0.000000,512.000000) scale(0.100000,-0.100000)"
fill="#000000" stroke="none">
<path d="M4389 4786 c-94 -25 -140 -65 -529 -452 l-385 -384 -1505 -2 -1505
-3 -55 -26 c-80 -37 -125 -81 -162 -157 l-33 -67 -3 -1525 c-2 -1100 0 -1542
8 -1585 7 -33 22 -78 35 -101 33 -57 103 -118 161 -140 48 -18 108 -19 2149
-19 l2100 0 53 24 c68 31 144 113 169 183 17 51 18 126 18 1608 l0 1555 -26
55 c-14 31 -40 72 -58 92 -33 38 -140 98 -174 98 -14 0 7 28 80 104 154 159
200 269 173 416 -42 233 -284 387 -511 326z m190 -222 c108 -54 145 -178 82
-275 -16 -24 -316 -330 -667 -680 l-639 -637 -199 -66 c-110 -36 -202 -64
-204 -61 -2 2 26 93 62 202 l66 198 658 657 c421 422 670 663 692 672 51 22
89 19 149 -10z m-1506 -1016 l-180 -183 -112 -335 c-61 -184 -111 -350 -111
-369 0 -43 55 -101 96 -101 16 0 180 50 364 111 l335 111 475 474 475 474 108
0 c107 0 109 -1 138 -29 l29 -29 0 -1534 c0 -1703 6 -1564 -66 -1594 -50 -21
-4078 -21 -4128 0 -72 30 -66 -109 -66 1594 l0 1534 29 29 29 29 1383 0 1383
0 -181 -182z"/>
<path d="M1541 2659 c-55 -11 -120 -49 -158 -93 -17 -19 -94 -140 -172 -269
-145 -241 -155 -266 -130 -321 27 -58 122 -72 166 -23 11 12 71 108 133 212
158 266 164 273 205 281 42 7 89 -10 110 -40 19 -26 19 -68 0 -130 -19 -63
-19 -99 1 -166 23 -76 100 -153 179 -176 108 -31 201 -5 288 81 62 60 116 85
193 85 49 0 68 -5 105 -28 24 -16 53 -39 64 -52 29 -33 108 -70 184 -86 90
-19 293 -19 330 1 55 28 67 124 21 169 -18 19 -37 22 -163 27 -162 7 -196 18
-284 93 -94 81 -238 114 -360 82 -88 -22 -148 -55 -221 -120 -50 -45 -68 -55
-85 -50 -52 16 -59 46 -31 142 39 133 -30 283 -163 351 -32 16 -143 44 -162
40 -3 -1 -26 -5 -50 -10z"/>
</g>
</svg>
