<?xml version="1.0" standalone="no"?>
<!DOCTYPE svg PUBLIC "-//W3C//DTD SVG 20010904//EN"
 "http://www.w3.org/TR/2001/REC-SVG-20010904/DTD/svg10.dtd">
<svg version="1.0" xmlns="http://www.w3.org/2000/svg"
 width="512.000000pt" height="512.000000pt" viewBox="0 0 512.000000 512.000000"
 preserveAspectRatio="xMidYMid meet">

<g transform="translate(0.000000,512.000000) scale(0.100000,-0.100000)"
fill="#000000" stroke="none">
<path d="M1000 4251 c-260 -55 -448 -224 -536 -481 -18 -53 -19 -105 -19
-1295 0 -1151 1 -1245 18 -1309 77 -301 267 -520 532 -613 l80 -28 866 -3 866
-3 28 22 c48 38 65 91 65 205 l0 101 88 6 c305 23 535 161 645 387 77 158 79
176 84 733 l5 487 351 0 c200 0 347 -4 342 -9 -6 -5 -106 -70 -223 -146 -228
-147 -249 -168 -238 -230 10 -51 50 -85 101 -85 39 0 78 23 429 251 285 186
391 260 402 282 17 32 13 80 -10 109 -7 10 -186 130 -397 268 -427 278 -427
278 -491 221 -28 -25 -33 -36 -33 -74 0 -24 7 -52 15 -62 8 -10 107 -79 220
-153 113 -74 209 -138 215 -143 5 -5 -139 -9 -337 -9 l-346 0 -5 468 c-4 505
-5 517 -63 655 -67 160 -204 307 -358 382 -181 90 -116 85 -1230 84 -905 0
-988 -2 -1066 -18z m2061 -205 c204 -44 372 -206 424 -411 12 -49 15 -139 15
-507 l0 -448 -305 0 -305 0 0 199 c0 178 -3 208 -25 296 -77 305 -293 534
-570 605 -75 19 -110 20 -812 20 -403 0 -733 4 -733 8 0 4 23 33 50 64 75 85
190 151 305 177 22 5 456 9 965 10 758 1 937 -2 991 -13z m-816 -471 c151 -40
283 -152 360 -307 78 -159 75 -109 75 -1317 0 -588 -3 -1102 -6 -1144 l-7 -77
-742 0 c-485 0 -762 4 -801 11 -97 17 -194 70 -271 147 -79 79 -125 151 -159
254 -25 73 -49 259 -40 308 2 14 5 501 5 1083 l1 1057 763 0 c653 0 771 -2
822 -15z m1255 -1567 c0 -499 -3 -525 -61 -641 -20 -38 -59 -89 -103 -133
-109 -109 -235 -164 -378 -164 l-68 0 0 695 0 695 305 0 305 0 0 -452z"/>
</g>
</svg>
