<?xml version="1.0" standalone="no"?>
<!DOCTYPE svg PUBLIC "-//W3C//DTD SVG 20010904//EN"
 "http://www.w3.org/TR/2001/REC-SVG-20010904/DTD/svg10.dtd">
<svg version="1.0" xmlns="http://www.w3.org/2000/svg"
 width="512.000000pt" height="512.000000pt" viewBox="0 0 512.000000 512.000000"
 preserveAspectRatio="xMidYMid meet">

<g transform="translate(0.000000,512.000000) scale(0.100000,-0.100000)"
fill="#000000" stroke="none">
<path d="M2460 4899 c-238 -39 -430 -278 -430 -534 0 -133 42 -242 132 -340
35 -39 48 -60 40 -63 -8 -2 -48 -30 -90 -62 -136 -103 -223 -230 -273 -401
-19 -66 -22 -104 -26 -350 -7 -403 -31 -379 366 -379 l271 0 0 -507 0 -508
-412 -320 c-226 -176 -415 -321 -418 -323 -4 -1 -23 22 -43 52 -48 72 -134
157 -205 203 -31 21 -59 38 -61 40 -2 1 19 27 46 58 89 100 133 213 133 345 1
474 -572 716 -900 381 -105 -106 -160 -240 -160 -386 0 -133 42 -242 132 -340
35 -39 48 -60 40 -63 -8 -2 -48 -30 -90 -62 -136 -103 -223 -230 -273 -401
-19 -66 -22 -104 -26 -350 -5 -245 -3 -281 12 -312 33 -69 9 -67 735 -67 727
0 702 -2 735 67 16 33 17 66 12 312 -3 152 -7 283 -9 292 -3 15 79 81 777 625
l81 62 428 -381 429 -382 -2 -248 c-2 -210 1 -252 14 -281 32 -68 10 -66 735
-66 727 0 702 -2 735 67 15 32 17 67 12 312 -4 244 -7 284 -26 349 -53 181
-165 336 -309 429 -31 21 -59 38 -61 40 -2 1 19 27 46 58 89 100 133 213 133
345 0 230 -135 426 -345 501 -84 30 -230 37 -314 15 -248 -63 -401 -261 -401
-516 0 -133 44 -245 134 -346 33 -38 46 -59 37 -62 -7 -2 -47 -30 -90 -62 -86
-65 -149 -138 -202 -235 l-36 -66 -402 356 -401 357 0 509 0 509 271 0 c397 0
373 -24 366 379 -4 244 -7 284 -26 349 -53 181 -165 336 -309 429 -31 21 -59
39 -61 40 -2 2 19 27 46 56 189 199 176 521 -28 729 -123 126 -285 177 -469
147z m235 -238 c115 -51 178 -152 179 -286 1 -72 -3 -88 -32 -148 -54 -109
-152 -167 -282 -167 -130 0 -228 58 -282 167 -29 60 -33 77 -33 148 0 120 48
208 143 267 85 53 213 61 307 19z m14 -848 c147 -40 262 -134 324 -263 49
-105 57 -155 57 -370 l0 -190 -530 0 -530 0 0 193 c0 136 5 211 15 256 50 212
231 368 450 390 78 8 147 3 214 -16z m-1614 -1712 c115 -51 178 -152 179 -286
1 -72 -3 -88 -32 -148 -54 -109 -152 -167 -282 -167 -130 0 -228 58 -282 167
-29 60 -33 77 -33 148 0 120 48 208 143 267 85 53 213 61 307 19z m3200 0
c115 -51 178 -152 179 -286 1 -72 -3 -88 -32 -148 -54 -109 -152 -167 -282
-167 -130 0 -228 58 -282 167 -29 60 -33 77 -33 148 0 120 48 208 143 267 85
53 213 61 307 19z m-3186 -848 c147 -40 262 -134 324 -263 49 -105 57 -155 57
-370 l0 -190 -530 0 -530 0 0 193 c0 136 5 211 15 256 50 212 231 368 450 390
78 8 147 3 214 -16z m3200 0 c147 -40 262 -134 324 -263 49 -105 57 -155 57
-370 l0 -190 -530 0 -530 0 0 193 c0 136 5 211 15 256 50 212 231 368 450 390
78 8 147 3 214 -16z"/>
</g>
</svg>
